HIERARCHY
ROOT root     
{
	OFFSET 0.0000 0.0000 0.0000
	CHANNELS 6 Xposition Yposition Zposition Zrotation Yrotation Xrotation
	JOINT pelvis   
	{
		OFFSET 0.0000 0.0000 0.0000
		CHANNELS 3 Zrotation Yrotation Xrotation
		JOINT thorax   
		{
			OFFSET 0.0000 23.0750 -5.0000
			CHANNELS 3 Zrotation Yrotation Xrotation
			JOINT rclavicle
			{
				OFFSET 0.0000 28.0009 0.0000
				CHANNELS 3 Zrotation Yrotation Xrotation
				JOINT rhumerus 
				{
					OFFSET -18.5725 5.5939 0.0000
					CHANNELS 3 Zrotation Yrotation Xrotation
					JOINT rradius  
					{
						OFFSET -24.8459 0.0000 0.0000
						CHANNELS 3 Zrotation Yrotation Xrotation
						JOINT rhand    
						{
							OFFSET -24.5477 0.0000 0.0000
							CHANNELS 3 Zrotation Yrotation Xrotation
							End Site
							{
								OFFSET -8.1826 0.0000 0.0000
							}
						}
					}
				}
			}
			JOINT lclavicle
			{
				OFFSET 0.0000 28.0009 0.0000
				CHANNELS 3 Zrotation Yrotation Xrotation
				JOINT lhumerus 
				{
					OFFSET 18.5725 5.5939 0.0000
					CHANNELS 3 Zrotation Yrotation Xrotation
					JOINT lradius  
					{
						OFFSET 24.8459 0.0000 0.0000
						CHANNELS 3 Zrotation Yrotation Xrotation
						JOINT lhand    
						{
							OFFSET 24.5477 0.0000 0.0000
							CHANNELS 3 Zrotation Yrotation Xrotation
							End Site
							{
								OFFSET 8.1826 0.0000 0.0000
							}
						}
					}
				}
			}
			JOINT head     
			{
				OFFSET 0.0000 35.2030 0.0000
				CHANNELS 3 Zrotation Yrotation Xrotation
				End Site
				{
					OFFSET 0.0000 11.7343 0.0000
				}
			}
		}
		JOINT rfemur   
		{
			OFFSET -8.2817 0.0000 0.0000
			CHANNELS 3 Zrotation Yrotation Xrotation
			JOINT rtibia   
			{
				OFFSET 0.0000 -43.3627 0.0000
				CHANNELS 3 Zrotation Yrotation Xrotation
				JOINT rfoot    
				{
					OFFSET 0.0000 -38.2947 0.0000
					CHANNELS 3 Zrotation Yrotation Xrotation
					JOINT rtoes    
					{
						OFFSET 0.0000 0.0000 16.6054
						CHANNELS 3 Zrotation Yrotation Xrotation
						End Site
						{
							OFFSET 0.0000 0.0000 5.5351
						}
					}
				}
			}
		}
		JOINT lfemur   
		{
			OFFSET 8.2817 0.0000 0.0000
			CHANNELS 3 Zrotation Yrotation Xrotation
			JOINT ltibia   
			{
				OFFSET 0.0000 -43.3627 0.0000
				CHANNELS 3 Zrotation Yrotation Xrotation
				JOINT lfoot    
				{
					OFFSET 0.0000 -38.2947 0.0000
					CHANNELS 3 Zrotation Yrotation Xrotation
					JOINT ltoes    
					{
						OFFSET 0.0000 0.0000 16.6054
						CHANNELS 3 Zrotation Yrotation Xrotation
						End Site
						{
							OFFSET 0.0000 0.0000 5.5351
						}
					}
				}
			}
		}
	}
}
MOTION
Frames: 15
Frame Time: .0333333
17.2 79.621 -18.777 -167.794 49.7755 -148.92 0 -0 0 5.4232 -3.15797 23.5369 18.4424 -4.9201 6.47656e-06 51.5203 12.7277 2.74137 -180 85.3935 -180 -11.3486 1.42677 -0.141799 -19.1239 9.6301 4.39375e-05 -49.6088 29.1291 18.0636 1.04371e-06 -79.3586 -1.25808e-06 8.6612 7.15354 0.542405 5.62771 -1.66249 3.85665 5.03916 -22.3101 -37.8374 -0 -0 57.9316 1.06625e-06 5.16337 3.94962 0.356598 1.19175e-07 -76.4653 -18.7172 18.6359 -66.1419 -0 -0 63.5289 0.000213972 22.9226 -18.2907 172.44 -2.3835e-06 -1.78553 
17.756 79.72 -19.424 -168.008 49.1937 -148.891 0 -0 0 5.20088 -3.04463 23.3979 18.3877 -5.0688 -4.79155e-06 51.2327 12.6816 2.71003 -180 84.2125 -180 -11.3645 1.38901 -0.138204 -18.9485 9.7368 -6.32376e-05 -49.4767 29.6204 18.0849 2.30384e-06 -80.273 -2.73229e-06 8.47411 6.63067 0.491797 5.6634 -1.69375 3.52226 4.83814 -22.5931 -37.4077 -0 -0 57.8129 -6.18174e-06 5.19997 4.73161 0.430094 4.0837e-06 -77.4046 -19.9729 18.6843 -67.0662 -0 -0 61.5324 2.29547e-05 23.0698 -18.3356 172.369 -8.63012e-07 -1.64052 
18.316 79.799 -20.092 -168.215 48.6186 -148.862 0 -0 0 4.9685 -2.95994 23.2518 18.3644 -5.20027 3.01077e-05 50.9721 12.5834 2.67164 -180 83.0634 -180 -11.3463 1.38995 -0.138094 -18.796 9.84437 1.17641e-05 -49.3921 30.0573 18.0526 0 -81.1556 0 8.3374 6.09287 0.4445 5.68884 -1.71173 3.18507 4.63065 -22.8924 -37.0112 -0 -0 57.7818 -4.49269e-07 5.26643 5.57064 0.51261 1.32009e-06 -78.4391 -21.1748 18.6936 -67.8869 -0 -0 59.5432 -0.000170406 23.1673 -18.3853 172.314 -3.91353e-07 -1.23272 
18.882 79.858 -20.782 -168.407 48.0413 -148.835 0 -0 0 4.7387 -2.90294 23.1075 18.3839 -5.33743 -8.55312e-06 50.7269 12.466 2.64265 -180 81.9746 -180 -11.2875 1.4239 -0.140698 -18.6592 9.96829 -4.8999e-05 -49.3595 30.4043 17.9969 8.25718e-07 -81.9881 -1.41026e-06 8.26149 5.55588 0.401591 5.70344 -1.7193 2.85197 4.41794 -23.2145 -36.6366 -0 -0 57.8346 -2.08903e-07 5.36705 6.46371 0.605906 2.9222e-06 -79.6397 -22.2672 18.6517 -68.5736 -0 -0 57.5707 -4.27845e-05 23.2076 -18.4211 172.284 -3.1947e-07 -0.726509 
19.46 79.892 -21.495 -168.576 47.4636 -148.817 0 -0 0 4.52256 -2.86738 22.9757 18.443 -5.48375 2.3718e-05 50.4933 12.3301 2.62427 -180 80.9245 -180 -11.1825 1.48767 -0.145596 -18.5364 10.1055 -7.27076e-05 -49.3793 30.6562 17.922 9.43483e-07 -82.754 -1.52775e-06 8.24495 5.03598 0.363208 5.70835 -1.72032 2.53123 4.19753 -23.562 -36.2626 -0 -0 57.9714 -1.5841e-06 5.50815 7.4035 0.711905 4.33454e-06 -81.0001 -23.1981 18.5574 -69.0976 -0 -0 55.6294 -3.75731e-05 23.1894 -18.4036 172.298 -7.90407e-08 -0.159701 
20.054 79.897 -22.233 -168.717 46.884 -148.818 0 -0 0 4.3208 -2.84262 22.8639 18.536 -5.62128 3.66708e-05 50.2781 12.1439 2.60346 -180 79.9232 -180 -11.0269 1.58151 -0.152701 -18.4369 10.2318 -1.61742e-06 -49.4465 30.8482 17.8103 -1.98229e-06 -83.4741 1.7685e-06 8.27183 4.54743 0.329011 5.70823 -1.71819 2.23068 3.95852 -23.9328 -35.8642 -0 -0 58.1863 -5.08751e-06 5.70266 8.39085 0.83489 -2.52101e-08 -82.5539 -23.9269 18.4188 -69.4384 -0 -0 53.7311 0.000106632 23.1101 -18.2623 -7.61708 2.98603e-07 -0.723705 
20.669 79.87 -22.998 -168.813 46.3067 -148.839 0 -0 0 4.14704 -2.8211 22.7811 18.6664 -5.77639 2.78976e-05 50.0722 11.9428 2.60203 -180 78.98 -180 -10.8248 1.68674 -0.159798 -18.3469 10.3653 1.83654e-05 -49.5706 30.9544 17.6826 -2.19391e-06 -84.1433 1.98021e-06 8.34424 4.09171 0.298597 5.70155 -1.71275 1.95273 3.70034 -24.3204 -35.4188 -0 -0 58.4709 3.92527e-07 5.95087 9.40653 0.975996 -4.26349e-06 -84.2289 -24.4113 18.2435 -69.5838 -0 -0 51.9152 -7.65853e-05 22.9874 -17.9911 -7.46445 2.81508e-06 -1.54595 
21.309 79.804 -23.791 -168.862 45.7375 -148.889 0 -0 0 4.00136 -2.79165 22.7321 18.8281 -5.94186 -3.7505e-06 49.8757 11.7146 2.61973 -180 78.0936 -180 -10.58 1.79492 -0.166202 -18.2693 10.4958 5.12e-05 -49.7482 30.999 17.5261 3.14963e-06 -84.7544 -3.45182e-06 8.44681 3.66939 0.271094 5.69031 -1.70433 1.70056 3.41282 -24.7135 -34.9037 -0 -0 58.8219 8.69542e-07 6.26206 10.4387 1.139 -2.61452e-06 -85.9912 -24.6355 18.0493 -69.5395 -0 -0 50.2208 6.56088e-05 22.8294 -17.5573 -7.23709 1.29592e-06 -2.35063 
21.978 79.693 -24.612 -168.851 45.1834 -148.969 0 -0 0 3.88405 -2.74393 22.7177 19.0148 -6.11564 4.79499e-06 49.6916 11.4542 2.66168 -180 77.2601 -180 -10.3 1.89486 -0.170794 -18.2036 10.6209 2.63025e-05 -49.9801 30.9995 17.3349 0 -85.3483 0 8.5657 3.27547 0.245402 5.67622 -1.69049 1.47563 3.08752 -25.0954 -34.3016 -0 -0 59.2338 2.19867e-06 6.6428 11.4713 1.32679 3.82885e-06 -87.7542 -24.5979 17.8546 -69.3217 -0 -0 48.7012 -3.17132e-05 22.6503 -16.9635 -6.94145 -5.82492e-06 -3.03202 
22.675 79.532 -25.462 -168.777 44.6562 -149.079 0 -0 0 3.79191 -2.67023 22.7354 19.2212 -6.29361 -1.21502e-05 49.5231 11.1578 2.7343 -180 76.4939 -180 -9.99388 1.97819 -0.173001 -18.1445 10.7406 3.52802e-05 -50.2724 30.9725 17.097 4.07659e-06 -85.9058 -4.37865e-06 8.68669 2.90178 0.220399 5.65954 -1.66824 1.27913 2.71619 -25.4473 -33.6038 -0 -0 59.705 -5.5224e-06 7.09716 12.4805 1.54129 -9.01251e-06 -89.396 -24.3219 17.6829 -68.9645 -0 -0 47.4212 0.000155391 22.4558 -16.2383 -6.59302 -6.46709e-06 -3.4621 
23.401 79.318 -26.339 -168.641 44.1679 -149.222 0 -0 0 3.71447 -2.56417 22.7797 19.4404 -6.4616 2.29516e-06 49.3742 10.8093 2.83695 -180 75.7875 -180 -9.66908 2.0449 -0.173005 -18.1057 10.8469 -7.5075e-05 -50.608 30.9473 16.7987 -3.57676e-06 -86.4825 3.36324e-06 8.79429 2.54202 0.195505 5.64234 -1.63397 1.11007 2.28824 -25.7527 -32.8097 -0 -0 60.2369 1.19063e-05 7.63688 13.4635 1.78809 1.72873e-05 -90.9251 -23.8505 17.5577 -68.5075 -0 -0 46.4422 -0.000145384 22.2421 -15.419 -6.205 2.3858e-07 -3.69539 
24.153 79.046 -27.241 -168.449 43.7258 -149.397 0 -0 0 3.6432 -2.4244 22.8419 19.6678 -6.61152 4.68236e-07 49.2519 10.4044 2.97378 -180 75.1402 -180 -9.33311 2.09637 -0.171097 -18.0824 10.9418 -1.89178e-05 -50.9895 30.9349 16.4319 -3.01106e-06 -87.0439 2.86006e-06 8.87898 2.18878 0.169998 5.62407 -1.58361 0.969402 1.79738 -25.9921 -31.924 -0 -0 60.8307 2.03029e-06 8.26307 14.4001 2.06837 -2.52778e-05 -92.2348 -23.2393 17.4999 -68.0021 -0 -0 45.8288 -1.04432e-05 21.9992 -14.5774 -5.80601 1.26876e-06 -3.59061 
24.927 78.719 -28.166 -168.208 43.3377 -149.601 0 -0 0 3.56378 -2.2522 22.9132 19.8999 -6.7305 2.06958e-05 49.1634 9.93301 3.14325 -180 74.556 -180 -8.99128 2.14233 -0.168502 -18.0897 11.019 5.11159e-05 -51.3996 30.9477 15.9872 0 -87.6422 0 8.93359 1.83985 0.143699 5.60513 -1.51358 0.857808 1.23712 -26.1548 -30.9645 -0 -0 61.4926 -2.47169e-05 8.98122 15.2881 2.38644 -1.60657e-06 -93.2455 -22.5571 17.53 -67.4968 -0 -0 45.6312 -0.000133369 21.7148 -13.8003 -5.42648 4.75692e-06 -3.06158 
25.716 78.337 -29.11 -167.931 43.0095 -149.837 0 -0 0 3.47021 -2.05245 22.985 20.1267 -6.80959 4.15409e-05 49.1218 9.3937 3.34436 -180 74.0383 -180 -8.64614 2.19437 -0.1659 -18.114 11.0895 -2.19323e-05 -51.8471 30.9629 15.4771 -1.014e-05 -88.2628 9.83804e-06 8.96079 1.49478 0.117098 5.58173 -1.42002 0.780794 0.610286 -26.2315 -29.9463 -0 -0 62.2218 -4.52268e-05 9.77343 16.1141 2.73724 -7.93432e-06 -94.0476 -21.8651 17.6656 -67.0372 -0 -0 45.8875 -7.76482e-06 21.3725 -13.161 -5.09186 1.26855e-06 -2.18756 
26.514 77.906 -30.07 -167.64 42.7426 -150.105 0 -0 0 3.34265 -1.8316 23.05 20.3532 -6.83614 -6.35104e-06 49.1347 8.77529 3.56799 -180 73.5863 -180 -8.29791 2.27363 -0.164906 -18.1894 11.133 -6.94436e-05 -52.2888 30.9967 14.8876 1.69532e-06 -88.9143 -2.29789e-06 8.961 1.16105 0.0910055 5.55441 -1.30215 0.739288 -0.092807 -26.2187 -28.8965 -0 -0 63.0266 1.33627e-06 10.6529 16.9 3.12992 -6.95112e-05 -94.4075 -21.2253 17.909 -66.6532 -0 -0 46.5992 4.01157e-05 20.9755 -12.7452 -4.83451 2.02839e-07 -0.844906 
